<svg xmlns="http://www.w3.org/2000/svg" viewBox="0 0 1440 360" preserveAspectRatio="none">
  <defs>
    <linearGradient id="g1" x1="0" x2="0" y1="0" y2="1">
      <stop offset="0%" stop-color="#eaf1fb"/>
      <stop offset="100%" stop-color="#f7f9fd"/>
    </linearGradient>
  </defs>
  <rect width="1440" height="360" fill="url(#g1)"/>
  <path fill="#dfe6ef" d="M0,280 L80,250 C160,220 320,160 480,150 C640,140 800,180 960,200 C1120,220 1280,220 1360,230 L1440,240 L1440,360 L0,360 Z" />
  <path fill="#cfd9e6" d="M0,300 L90,270 C180,240 360,200 540,190 C720,180 900,210 1080,230 C1260,250 1350,255 1440,260 L1440,360 L0,360 Z" />
  <path fill="#bfcfe0" d="M0,330 L120,310 C240,290 480,250 720,245 C960,240 1200,270 1320,285 L1440,300 L1440,360 L0,360 Z" />
</svg>